<?xml version="1.0" standalone="no"?>
<!DOCTYPE svg PUBLIC "-//W3C//DTD SVG 20010904//EN"
 "http://www.w3.org/TR/2001/REC-SVG-20010904/DTD/svg10.dtd">
<svg version="1.0" xmlns="http://www.w3.org/2000/svg"
 width="467.000000pt" height="467.000000pt" viewBox="0 0 467.000000 467.000000"
 preserveAspectRatio="xMidYMid meet">
<metadata>
Created by potrace 1.11, written by Peter Selinger 2001-2013
</metadata>
<g transform="translate(0.000000,467.000000) scale(0.100000,-0.100000)"
fill="#000000" stroke="none">
<path d="M1741 4084 c0 -11 3 -14 6 -6 3 7 2 16 -1 19 -3 4 -6 -2 -5 -13z"/>
<path d="M1731 4044 c0 -11 3 -14 6 -6 3 7 2 16 -1 19 -3 4 -6 -2 -5 -13z"/>
<path d="M1722 3965 c0 -16 2 -22 5 -12 2 9 2 23 0 30 -3 6 -5 -1 -5 -18z"/>
<path d="M1710 3898 c0 -13 -4 -29 -9 -37 -5 -7 -6 -25 -2 -40 5 -14 4 -39 0
-55 -6 -21 -5 -26 3 -18 10 10 21 172 12 172 -2 0 -4 -10 -4 -22z"/>
<path d="M1910 3844 c-25 -14 -50 -33 -57 -41 -7 -10 -22 -14 -37 -11 -22 4
-24 3 -15 -13 11 -22 12 -21 -23 -23 -16 -1 -28 2 -28 6 0 4 -4 8 -10 8 -5 0
-10 -11 -10 -24 0 -14 -5 -28 -10 -31 -6 -4 -8 -15 -5 -25 3 -10 1 -21 -5 -25
-5 -3 -10 -15 -10 -25 0 -18 -1 -18 -40 1 -31 15 -45 17 -60 9 -10 -6 -25 -9
-32 -8 -8 2 -12 -11 -11 -39 0 -24 -3 -43 -6 -43 -14 0 8 -137 27 -171 23 -42
69 -62 83 -36 6 10 14 15 20 12 13 -9 11 -25 -3 -23 -24 5 -21 -45 4 -64 12
-9 18 -18 12 -18 -6 0 -28 14 -49 30 -42 33 -57 38 -49 15 11 -28 62 -75 93
-86 17 -6 31 -15 31 -20 0 -6 10 -5 21 2 20 10 21 9 16 -10 -3 -11 -1 -21 3
-21 5 0 12 -17 15 -37 4 -21 18 -80 31 -130 15 -55 27 -134 30 -195 3 -56 9
-107 14 -114 6 -6 9 -22 9 -35 -5 -79 33 -193 83 -255 13 -16 35 -47 49 -69
15 -22 40 -54 58 -71 l32 -31 -41 -28 c-42 -29 -194 -183 -268 -273 -36 -42
-40 -52 -25 -52 10 0 24 5 30 11 16 16 152 28 157 14 2 -6 8 -6 17 3 7 6 21
12 30 12 9 0 20 7 23 16 13 33 26 0 26 -67 0 -61 -4 -74 -30 -111 -16 -22 -30
-45 -30 -50 0 -6 -15 -28 -34 -49 -50 -59 -90 -148 -134 -299 -58 -197 -91
-378 -118 -642 -3 -36 -10 -57 -17 -55 -14 2 -14 -35 2 -118 6 -33 11 -117 11
-187 0 -111 -5 -170 -25 -320 l-5 -38 307 0 308 0 0 212 c1 292 1 529 0 678 0
69 4 240 8 380 9 243 8 260 -13 355 -12 55 -28 119 -36 142 -13 38 -13 45 2
68 9 14 19 23 22 20 3 -2 12 1 20 8 10 8 44 11 99 10 70 -2 93 -7 130 -28 26
-14 48 -24 50 -22 2 2 -53 67 -123 143 -69 76 -143 159 -164 184 -38 45 -38
46 -14 48 13 1 24 -2 24 -6 0 -5 6 -9 13 -9 6 0 17 -2 22 -3 20 -5 36 0 30 10
-3 6 2 10 13 10 10 0 25 12 32 26 8 14 22 30 32 35 10 5 18 19 18 29 0 11 7
20 15 20 8 0 15 5 15 11 0 7 8 18 18 25 16 13 16 14 -2 7 -13 -4 -17 -3 -12 5
4 7 17 12 29 12 18 0 19 2 7 10 -12 8 -6 18 35 56 28 26 75 70 106 99 65 59
89 95 64 95 -8 0 -15 -5 -15 -12 0 -6 -2 -9 -5 -6 -7 7 5 39 14 34 3 -2 7 6 8
17 1 24 36 123 46 133 3 4 4 -9 1 -28 -5 -25 -1 -38 12 -48 12 -10 15 -11 10
-2 -4 7 -2 20 6 29 9 12 9 15 1 9 -19 -11 -16 37 6 114 10 36 21 95 25 132 4
37 12 70 17 74 5 3 6 10 3 16 -9 14 15 28 48 28 19 0 33 9 45 28 10 15 26 36
35 46 10 10 15 23 12 28 -4 5 -14 -4 -25 -21 -21 -35 -47 -51 -83 -51 -33 0
-35 32 -4 54 22 16 22 16 2 16 -24 0 -58 -33 -47 -45 5 -4 -1 -5 -12 -2 -11 3
-36 9 -55 12 -54 10 -123 35 -140 50 -8 7 -25 16 -38 20 -21 6 -22 4 -16 -20
6 -24 5 -26 -12 -17 -24 12 -123 31 -209 39 -36 3 -65 9 -65 12 0 17 33 51 51
51 20 0 27 34 9 45 -20 13 -65 -6 -81 -33 -31 -54 -181 -83 -250 -48 -18 9
-38 16 -46 16 -15 0 -18 46 -3 55 6 3 10 15 10 26 0 10 5 19 12 19 9 0 9 3 0
12 -10 10 -15 10 -22 -2 -5 -8 -6 -18 -3 -23 3 -5 -4 -6 -15 -3 -11 4 -23 2
-27 -4 -13 -21 -53 -10 -75 20 -12 17 -35 37 -51 45 -26 14 -29 20 -29 68 0
67 9 97 27 97 8 0 12 4 9 9 -8 13 18 21 34 11 8 -5 22 -2 35 6 12 8 25 11 28
7 4 -3 7 1 7 10 0 25 1 31 11 48 5 10 4 20 -3 27 -9 9 -7 17 7 32 10 11 15 20
10 20 -4 0 2 8 13 18 16 13 41 73 30 72 -2 -1 -23 -12 -48 -26z m-189 -401
c-8 -15 -10 -15 -11 -2 0 17 10 32 18 25 2 -3 -1 -13 -7 -23z m851 -327 c12
-17 9 -36 -5 -36 -19 0 -50 36 -43 49 7 11 37 3 48 -13z m-137 -146 c3 -5 1
-10 -4 -10 -6 0 -11 5 -11 10 0 6 2 10 4 10 3 0 8 -4 11 -10z m-78 -126 c-3
-3 -12 -4 -19 -1 -8 3 -5 6 6 6 11 1 17 -2 13 -5z m52 -25 c-7 -4 -18 -4 -25
1 -6 6 -15 6 -19 2 -5 -4 -5 -2 -2 4 4 6 18 9 33 6 18 -3 22 -7 13 -13z m66
-9 c-3 -5 -10 -10 -16 -10 -5 0 -9 5 -9 10 0 6 7 10 16 10 8 0 12 -4 9 -10z"/>
<path d="M2280 3741 c-8 -5 -49 -11 -90 -15 -247 -23 -273 -33 -286 -104 -4
-20 -9 -41 -12 -46 -5 -9 -6 -42 -3 -75 1 -6 13 -16 29 -24 15 -7 26 -18 25
-25 -3 -12 15 -8 54 10 12 6 34 8 50 4 27 -7 77 -7 175 -1 26 1 60 11 75 21
15 10 31 17 35 16 4 -1 14 10 22 26 15 28 50 62 65 62 14 0 40 -35 53 -71 16
-46 32 -60 92 -81 70 -25 151 -24 173 2 10 11 27 20 38 20 39 0 55 22 61 86 6
58 5 62 -21 82 -16 13 -42 22 -61 22 -19 0 -34 4 -34 8 0 8 -106 42 -133 42
-10 0 -20 7 -23 15 -4 11 -13 13 -27 9 -40 -13 -184 -2 -217 16 -22 12 -21 12
-40 1z"/>
<path d="M2855 3691 c3 -24 10 -51 15 -60 17 -28 12 33 -5 70 l-16 34 6 -44z"/>
<path d="M1678 3695 c-3 -14 0 -26 8 -29 10 -4 14 3 14 19 0 33 -17 41 -22 10z"/>
<path d="M1603 3695 c0 -8 4 -15 9 -15 4 0 8 4 8 9 0 6 -4 12 -8 15 -5 3 -9
-1 -9 -9z"/>
<path d="M2930 3616 c0 -2 8 -10 18 -17 15 -13 16 -12 3 4 -13 16 -21 21 -21
13z"/>
<path d="M2962 3543 c-58 -28 -64 -42 -65 -152 -2 -109 5 -122 42 -74 12 14
24 23 28 20 8 -9 43 32 44 52 0 9 3 46 7 82 9 80 -4 97 -56 72z m17 -166 c0
-21 -1 -21 -9 -2 -12 28 -12 37 0 30 6 -3 10 -16 9 -28z"/>
<path d="M2941 3277 c-13 -21 -12 -21 5 -5 10 10 16 20 13 22 -3 3 -11 -5 -18
-17z"/>
<path d="M676 1621 c-4 -5 -1 -22 4 -37 8 -21 7 -32 -7 -53 -17 -26 -25 -62
-41 -171 -5 -30 -13 -65 -20 -77 -7 -12 -12 -31 -12 -42 0 -12 -23 -44 -51
-72 -35 -36 -48 -54 -40 -62 6 -6 7 -17 2 -26 -5 -9 -11 -29 -15 -44 -6 -25
-5 -28 14 -22 21 7 28 -9 9 -21 -6 -3 -9 -17 -6 -30 2 -13 -2 -29 -10 -35 -7
-7 -13 -26 -11 -43 1 -17 -4 -42 -12 -56 -12 -23 -12 -24 3 -11 20 16 22 3 5
-34 -8 -19 -9 -28 -1 -33 6 -4 11 -33 10 -67 -1 -65 8 -191 18 -242 4 -21 2
-33 -5 -33 -6 0 -8 5 -4 11 3 6 0 15 -7 20 -8 4 -14 12 -14 16 0 4 -9 34 -19
65 l-20 57 -17 -40 c-10 -22 -24 -42 -32 -45 -8 -3 -25 -28 -38 -57 -13 -29
-27 -54 -31 -57 -3 -3 0 -16 7 -30 8 -14 14 -22 15 -18 0 11 60 -13 60 -23 0
-6 -9 -5 -20 1 -11 6 -26 8 -33 3 -6 -4 -30 -7 -52 -6 -55 2 -70 -22 -35 -57
19 -19 19 -20 1 -20 -10 0 -22 -7 -25 -16 -3 -8 -10 -13 -15 -10 -5 3 -16 -5
-25 -19 -9 -14 -13 -25 -9 -25 5 0 3 -4 -3 -8 -26 -18 -54 -81 -49 -111 6 -34
3 -36 -25 -21 -13 7 -19 6 -24 -5 -6 -16 8 -16 95 0 23 5 39 3 43 -4 5 -8 113
-11 362 -11 l354 0 0 79 c0 44 4 83 10 86 12 7 50 -12 50 -25 0 -6 18 -26 40
-46 22 -20 40 -43 40 -50 0 -8 4 -14 10 -14 13 0 24 45 17 70 -3 11 3 30 13
42 16 21 25 92 30 233 1 19 1 19 15 1 23 -30 41 -12 74 74 24 61 30 90 25 116
-7 36 -11 39 -34 24 -10 -6 -11 -10 -2 -10 6 0 12 -4 12 -8 0 -10 -148 -54
-160 -47 -4 3 -11 29 -15 58 -12 83 -19 94 -34 52 -7 -19 -16 -35 -21 -35 -12
0 -60 105 -60 130 0 11 -4 20 -9 20 -5 0 -24 44 -41 98 -18 53 -39 104 -46
113 -18 21 -18 84 2 170 22 96 9 102 -43 23 -11 -16 -12 -13 -7 20 6 31 3 42
-12 53 -12 9 -19 27 -20 57 -2 48 -21 116 -33 116 -4 0 -8 -25 -9 -55 0 -30
-5 -62 -10 -72 -18 -32 -25 30 -19 163 3 70 1 138 -4 158 -10 35 -22 45 -33
27z m374 -1217 c-37 -76 -44 -86 -55 -71 -18 25 -6 65 27 90 17 12 37 35 45
50 8 16 17 27 19 24 3 -3 -13 -45 -36 -93z m-699 -207 c-5 -14 -15 -28 -21
-32 -5 -3 -3 10 7 29 19 40 29 42 14 3z"/>
<path d="M4138 1535 c5 -11 12 -27 15 -35 5 -13 6 -13 6 1 1 8 -6 24 -15 35
-15 19 -15 19 -6 -1z"/>
<path d="M750 1480 c-8 -5 -11 -12 -7 -16 4 -4 13 -2 19 4 6 6 10 14 7 16 -2
3 -11 1 -19 -4z"/>
<path d="M3582 1243 c-5 -10 -12 -71 -15 -137 -6 -125 -3 -119 -61 -158 -7 -5
-7 -11 2 -20 17 -17 15 -33 -3 -18 -17 14 -20 75 -5 85 6 3 10 17 10 31 0 22
-4 24 -49 24 -47 0 -83 18 -119 60 -24 27 -7 -69 22 -133 26 -56 27 -60 10
-78 -9 -10 -21 -16 -27 -12 -6 4 -8 -6 -5 -27 3 -20 0 -34 -8 -37 -7 -2 -16
-18 -19 -35 l-7 -31 -69 5 c-38 3 -69 1 -69 -3 0 -5 12 -9 28 -9 23 0 72 -36
72 -53 0 -4 -56 -14 -107 -19 -12 -1 -17 -18 -14 -45 1 -8 -9 -10 -34 -6 -32
5 -36 3 -46 -26 -6 -17 -17 -31 -25 -31 -15 0 -73 -37 -86 -54 -3 -6 -24 -10
-45 -11 -48 -2 -93 -14 -93 -26 0 -12 7 -11 30 1 21 11 50 -13 30 -25 -6 -4
-14 -4 -17 -1 -3 3 -15 1 -25 -5 -15 -8 -17 -14 -9 -22 17 -17 13 -27 -9 -27
-45 0 -14 -17 98 -53 138 -45 282 -62 282 -33 0 9 7 16 15 16 7 0 18 7 23 16
7 13 19 15 60 9 41 -5 60 -15 96 -48 54 -51 70 -86 55 -124 -7 -20 -6 -36 5
-64 15 -38 15 -38 -6 -30 -24 9 -68 3 -68 -9 0 -4 9 -10 20 -13 22 -6 27 -36
8 -55 -9 -9 34 -12 194 -12 l205 0 8 43 c4 23 9 53 10 67 2 14 13 54 24 90
l21 66 -86 87 c-89 90 -118 112 -134 102 -5 -3 -11 -1 -15 5 -3 5 -2 10 3 10
5 0 9 19 9 43 0 23 7 60 15 82 9 22 17 56 19 75 2 19 8 41 13 49 9 12 7 13 -6
8 -22 -8 -23 -1 -3 19 15 16 31 81 22 90 -10 10 -27 -6 -27 -25 0 -10 -9 -26
-19 -35 -19 -17 -20 -17 -31 3 -6 12 -10 51 -9 88 1 38 -3 97 -8 133 -6 36 -9
107 -8 158 3 91 -5 120 -23 85z m58 -500 c0 -5 -5 -15 -10 -23 -8 -12 -10 -11
-10 8 0 12 5 22 10 22 6 0 10 -3 10 -7z m6 -70 c-11 -11 -19 6 -11 24 8 17 8
17 12 0 3 -10 2 -21 -1 -24z m-16 -47 c0 -3 -4 -8 -10 -11 -5 -3 -10 -1 -10 4
0 6 5 11 10 11 6 0 10 -2 10 -4z m-344 -186 c8 0 14 -9 14 -20 0 -23 -37 -36
-74 -26 -14 3 -36 2 -49 -3 -14 -6 -28 -7 -31 -3 -4 3 -16 7 -28 9 -18 3 -42
23 -35 29 1 1 35 4 75 7 41 3 77 8 80 12 3 3 12 3 20 0 7 -3 20 -5 28 -5z"/>
<path d="M872 1078 c-14 -14 -16 -48 -2 -48 10 0 26 48 18 55 -2 3 -10 -1 -16
-7z"/>
<path d="M3266 1045 c-3 -8 -1 -15 3 -15 5 0 11 7 15 15 3 8 1 15 -3 15 -5 0
-11 -7 -15 -15z"/>
<path d="M905 901 c-3 -5 -1 -12 4 -15 5 -3 11 1 15 9 6 16 -9 21 -19 6z"/>
<path d="M3276 831 c-4 -6 -18 -11 -32 -11 -16 0 -23 -4 -18 -11 3 -6 -1 -10
-12 -9 -11 1 -28 1 -39 1 -20 -2 -20 -2 0 -10 11 -5 41 -11 68 -13 44 -5 48
-3 53 19 7 27 -9 52 -20 34z"/>
<path d="M3920 640 c0 -5 5 -10 11 -10 5 0 7 5 4 10 -3 6 -8 10 -11 10 -2 0
-4 -4 -4 -10z"/>
<path d="M2420 535 c0 -19 24 -30 41 -19 9 5 7 11 -6 21 -24 17 -35 17 -35 -2z"/>
<path d="M3700 543 c0 -6 6 -18 13 -25 7 -7 22 -28 32 -45 11 -18 23 -33 28
-33 5 0 5 6 -1 13 -6 6 -10 16 -11 20 0 13 -60 83 -61 70z"/>
<path d="M2431 422 c40 -53 53 -62 91 -62 39 0 52 -15 21 -23 -13 -3 -11 -5 6
-6 16 -1 21 -5 17 -16 -4 -12 4 -15 39 -15 31 0 52 -7 72 -23 67 -56 111 -28
49 31 -52 48 -48 66 10 57 36 -5 45 -4 42 7 -3 9 -23 13 -59 13 -30 0 -61 5
-69 10 -15 10 -132 34 -193 40 -35 4 -37 2 -26 -13z"/>
<path d="M3800 403 c0 -14 60 -93 71 -93 5 0 9 9 9 21 0 11 -4 18 -8 15 -11
-6 -23 3 -50 38 -12 16 -22 24 -22 19z"/>
<path d="M2800 330 c0 -5 5 -10 11 -10 5 0 7 5 4 10 -3 6 -8 10 -11 10 -2 0
-4 -4 -4 -10z"/>
<path d="M2513 313 c9 -2 23 -2 30 0 6 3 -1 5 -18 5 -16 0 -22 -2 -12 -5z"/>
<path d="M2775 242 c-23 -23 16 -47 59 -36 20 5 24 9 16 19 -11 13 -66 25 -75
17z"/>
<path d="M2767 161 c-3 -13 1 -21 14 -24 13 -4 17 -10 12 -23 -5 -13 -3 -15 7
-9 9 5 11 4 6 -3 -4 -7 -16 -12 -26 -12 -16 0 -50 -47 -50 -70 0 -3 37 -7 83
-8 45 -1 120 -4 166 -8 51 -3 87 -2 93 4 7 7 -4 9 -33 5 -29 -3 -39 -1 -31 5
10 7 6 12 -17 22 -17 6 -29 17 -28 22 1 5 -7 15 -18 21 -28 17 -45 41 -34 48
15 9 0 36 -24 43 -12 3 -43 6 -68 6 -38 0 -48 -4 -52 -19z"/>
<path d="M2631 150 c0 -14 6 -34 14 -44 13 -17 15 -18 15 -3 0 9 -6 17 -12 17
-9 0 -8 4 2 10 9 6 10 10 3 10 -6 0 -14 8 -16 18 -3 11 -5 9 -6 -8z"/>
<path d="M4185 93 c-181 -39 -211 -49 -211 -73 0 -17 7 -19 78 -17 43 1 78 5
78 9 0 7 57 17 135 23 28 2 53 4 58 4 13 2 7 21 -6 21 -8 0 -22 9 -32 20 -17
19 -52 24 -100 13z"/>
<path d="M2566 20 c6 -6 32 -12 59 -15 33 -4 43 -3 30 3 -31 14 -100 23 -89
12z"/>
</g>
</svg>
